<svg width="145" height="37" viewBox="0 0 145 37" fill="none" xmlns="http://www.w3.org/2000/svg">
<path d="M26.8126 2.32553C29.7724 3.87874 32.2511 6.21178 33.9804 9.07225C35.7098 11.9327 36.6239 15.2117 36.6239 18.5543C36.6239 21.8969 35.7098 25.1758 33.9804 28.0363C32.2511 30.8968 29.7724 33.2298 26.8126 34.783V32.6879C29.0464 31.3445 30.9278 29.4879 32.3008 27.2722L26.8126 25.0465V21.6608L32.83 26.3587C34.1296 23.9621 34.8053 21.277 34.7947 18.5507C34.7944 15.7081 34.0602 12.9138 32.663 10.4383C31.2659 7.96284 29.2532 5.88999 26.8199 4.42066L26.8126 2.32553ZM18.3303 0.251996C21.284 0.245623 24.195 0.957273 26.8126 2.32553V4.42066C24.3964 2.97537 21.6518 2.16947 18.8378 2.07897L20.933 17.0717L26.8199 21.6608V25.0465L18.3013 21.6028L9.84073 25.0683V21.6971L15.7639 17.0644L17.8446 2.07897C15.0301 2.16692 12.2849 2.973 9.86974 4.42066V2.32553C12.4805 0.959604 15.3838 0.247989 18.3303 0.251996V0.251996ZM26.8126 34.783C24.1916 36.1502 21.2792 36.8641 18.3231 36.8641C15.3669 36.8641 12.4545 36.1502 9.83349 34.783V32.6734C12.3969 34.2151 15.3317 35.0296 18.3231 35.0296C21.3144 35.0296 24.2492 34.2151 26.8126 32.6734V34.783ZM9.83349 34.783C6.86792 33.2328 4.38356 30.9001 2.65003 28.0379C0.916491 25.1756 0 21.8933 0 18.5471C0 15.2008 0.916491 11.9184 2.65003 9.05615C4.38356 6.19391 6.86792 3.86117 9.83349 2.31101V4.40623C6.19468 6.59193 3.53816 10.0958 2.41615 14.1896C1.29413 18.2834 1.79293 22.6522 3.80887 26.3877L9.83349 21.6826V25.0538L4.36711 27.3012C5.73781 29.4998 7.61142 31.3411 9.83349 32.6734V34.783Z" fill="#2C2C31"/>
<path d="M92.8305 12.6348C91.9976 12.8518 91.1493 13.0045 90.293 13.0915V13.3743C91.3515 13.3743 91.4893 13.4975 91.4893 14.3675V17.2674C90.8658 16.2597 90.38 15.9624 89.4738 15.9624C87.6758 15.9624 86.4144 17.6517 86.4144 20.0731C86.4144 22.4946 87.6903 24.1837 89.5246 24.1837C89.9708 24.1954 90.4099 24.0695 90.7821 23.8231C91.1543 23.5767 91.4417 23.2217 91.6053 22.8063C91.6331 23.2606 91.7109 23.7103 91.8373 24.1475C92.4737 23.9358 93.1334 23.8019 93.802 23.7487L94.0557 23.7125V23.4298C92.932 23.4298 92.8305 23.3137 92.8305 22.2843V12.6348ZM47.5335 12.758C47.0039 12.8167 46.4713 12.8434 45.9385 12.8378C45.4745 12.8378 45.2135 12.8377 44.5683 12.7725V13.193C45.721 13.2583 45.9603 13.425 45.9603 14.2008V14.3022L45.605 22.5381C45.605 23.4516 45.4093 23.582 44.2275 23.669V24.0678C45.1048 24.0025 45.4383 23.988 45.9095 23.988C46.3807 23.988 46.7142 23.988 47.5697 24.0678V23.669C46.3952 23.582 46.1777 23.4298 46.1777 22.6903V22.5381L46.5112 13.8383L49.2662 21.2765L49.4692 21.8638L49.7012 22.5163L49.9404 23.1688L50.1217 23.7053H50.3754L50.5566 23.1543L50.7741 22.5163L51.0134 21.8928L51.2091 21.3418L53.9858 13.8527L54.1308 22.5525V22.6395C54.1308 23.4297 53.8843 23.611 52.7389 23.6835V24.0823C54.1327 23.9083 55.5427 23.9083 56.9365 24.0823V23.6835C55.7258 23.5965 55.5735 23.466 55.559 22.5525L55.3778 14.3167V14.1935C55.3778 13.4685 55.6243 13.2728 56.7698 13.2075V12.787C56.1318 12.8377 55.8635 12.8522 55.443 12.8522C55.0225 12.8522 54.5876 12.8522 53.8336 12.7725L50.6582 21.2621L47.5335 12.758ZM112.833 12.8233V13.2437C114.044 13.309 114.21 13.4395 114.21 14.353V22.4873C114.21 23.4008 114.08 23.5168 112.833 23.6183V24.017H117.081C117.993 24.094 118.907 23.8891 119.698 23.4298C120.127 23.141 120.478 22.7513 120.721 22.2949C120.964 21.8385 121.091 21.3295 121.09 20.8126C121.099 20.386 121.01 19.963 120.831 19.576C120.651 19.189 120.385 18.8481 120.054 18.5796C119.662 18.2944 119.207 18.1101 118.727 18.0431C119.266 17.8911 119.74 17.5646 120.075 17.1148C120.409 16.6649 120.585 16.117 120.576 15.5565C120.584 15.1474 120.498 14.7418 120.323 14.3719C120.148 14.002 119.89 13.6778 119.568 13.425C118.885 12.9672 118.067 12.755 117.248 12.8233H112.833ZM115.624 13.3452H117.074C118.488 13.3452 119.111 14.0702 119.111 15.5927C119.149 16.2287 118.95 16.8562 118.553 17.3544C118.183 17.7749 117.734 17.9054 116.791 17.9054H115.653L115.624 13.3452ZM77.0113 15.745L76.5618 16.6004C76.3479 16.3607 76.0835 16.1713 75.7877 16.046C75.4919 15.9206 75.1719 15.8624 74.8509 15.8754C72.8644 15.8754 71.5232 17.5864 71.5232 20.0876C71.5232 22.5888 72.8499 24.1837 74.8001 24.1837C76.3081 24.1837 77.2651 23.205 77.4826 21.4143H76.7938C76.5908 22.8643 75.9746 23.5893 74.9306 23.5893C73.6401 23.5893 72.9877 22.4003 72.9877 20.0513C72.9877 17.7024 73.7127 16.2887 74.9814 16.2887C76.0109 16.2887 76.6271 17.0137 76.9316 18.4637H77.3013V15.6942L77.0113 15.745ZM107.091 15.7957L106.808 16.4844C106.313 16.1208 105.711 15.932 105.097 15.9479C103.647 15.9479 102.574 16.8542 102.574 18.1809C102.574 19.1524 102.966 19.6308 104.191 20.189L104.959 20.5444L105.597 20.827C106.424 21.1968 106.743 21.5521 106.743 22.1538C106.732 22.3682 106.678 22.5783 106.584 22.7714C106.491 22.9646 106.359 23.137 106.197 23.2784C106.036 23.4197 105.847 23.5271 105.644 23.5942C105.44 23.6613 105.224 23.6868 105.01 23.669C103.836 23.669 103.133 22.944 102.835 21.3998H102.466V24.2055H102.734L103.133 23.4805C103.694 23.9583 104.411 24.2159 105.148 24.2055C106.728 24.2055 107.852 23.1978 107.852 21.7913C107.852 20.7981 107.403 20.2616 106.127 19.7106L105.402 19.4061C103.879 18.7319 103.626 18.5143 103.626 17.8474C103.632 17.6498 103.678 17.4555 103.762 17.2765C103.846 17.0975 103.966 16.9376 104.114 16.8065C104.262 16.6755 104.435 16.5761 104.623 16.5145C104.811 16.4528 105.009 16.4303 105.206 16.4482C106.257 16.4482 106.815 17.0862 106.968 18.4346H107.352V15.832L107.091 15.7957ZM131.907 15.7957C131.189 16.0444 130.444 16.2121 129.689 16.2959V16.5859H129.906C130.747 16.5859 130.849 16.6875 130.863 17.3762V22.8136C130.863 23.5386 130.696 23.6691 129.674 23.7198V24.0533C130.276 23.9873 130.881 23.9534 131.487 23.9518C132.092 23.9529 132.697 23.9868 133.299 24.0533V23.7198C132.429 23.7198 132.212 23.5168 132.212 22.8498V18.7826C132.212 17.4051 132.813 16.6874 133.959 16.6874C135.104 16.6874 135.467 17.2747 135.467 18.7319V22.8498C135.467 23.5168 135.249 23.6836 134.343 23.7198V24.0533C134.95 23.9862 135.56 23.9523 136.17 23.9518C136.783 23.9534 137.395 23.9872 138.004 24.0533V23.7198C136.975 23.6691 136.808 23.5313 136.808 22.8136V18.7826C136.826 18.268 136.74 17.7551 136.554 17.2747C136.364 16.8616 136.057 16.5138 135.67 16.2752C135.283 16.0365 134.834 15.9176 134.379 15.9334C133.918 15.9241 133.463 16.0408 133.063 16.2707C132.664 16.5007 132.334 16.8352 132.11 17.2384C132.082 16.7528 132.014 16.2703 131.907 15.7957V15.7957ZM67.3038 15.7957C66.5805 16.0055 65.8367 16.1368 65.0853 16.1872V16.4844H65.3028C66.1801 16.4844 66.2598 16.5859 66.2816 17.3109V22.7991C66.2816 23.524 66.0931 23.6545 65.0708 23.7053V24.0388C66.3141 23.9034 67.5684 23.9034 68.8117 24.0388V23.7053C67.7895 23.6545 67.6228 23.5168 67.6228 22.7991V19.2901C67.6228 17.6299 68.1738 16.5714 69.0728 16.5714C69.37 16.5714 69.573 16.7382 69.573 16.9702V17.1224L69.5367 17.2891C69.5326 17.347 69.5326 17.4053 69.5367 17.4632C69.544 17.5459 69.5676 17.6262 69.6064 17.6997C69.6451 17.7731 69.6981 17.8381 69.7622 17.8907C69.8264 17.9434 69.9004 17.9827 69.9799 18.0064C70.0595 18.0301 70.143 18.0376 70.2255 18.0286C70.3278 18.0292 70.4291 18.0082 70.5227 17.9669C70.6163 17.9256 70.7 17.865 70.7685 17.789C70.837 17.7129 70.8886 17.6232 70.92 17.5258C70.9513 17.4285 70.9617 17.3256 70.9505 17.2239C70.9509 17.0376 70.913 16.8533 70.839 16.6824C70.7651 16.5114 70.6567 16.3575 70.5207 16.2303C70.3846 16.1031 70.2238 16.0053 70.0483 15.943C69.8728 15.8807 69.6863 15.8552 69.5005 15.8682C69.0559 15.8803 68.6264 16.0327 68.2736 16.3035C67.9207 16.5743 67.6625 16.9498 67.5358 17.3762V17.1877C67.4198 16.7164 67.3835 16.4482 67.3038 15.8247V15.7957ZM61.0182 15.8682C59.0027 15.8682 57.7412 17.4922 57.7412 20.0804C57.7412 22.6686 59.0027 24.1765 61.1632 24.1765C62.8089 24.1765 63.8819 23.147 64.1066 21.4216H63.4324C63.2294 22.8715 62.4899 23.5965 61.3009 23.5965C59.7712 23.5965 59.126 22.4221 59.0825 19.8049H64.0849C64.0559 17.2747 62.9974 15.8972 61.0182 15.8972V15.8682ZM81.9557 15.8682C79.9403 15.8682 78.6788 17.4922 78.6788 20.0804C78.6788 22.6686 79.9403 24.1765 82.1007 24.1765C82.4752 24.19 82.8486 24.1295 83.1995 23.9981C83.5505 23.8668 83.872 23.6673 84.1455 23.4113C84.4191 23.1553 84.6393 22.8477 84.7935 22.5062C84.9478 22.1647 85.0329 21.7961 85.0442 21.4216H84.3699C84.1669 22.8715 83.4274 23.5965 82.2385 23.5965C80.7088 23.5965 80.0635 22.4221 80.02 19.8049H85.0224C84.9934 17.2747 83.9349 15.8972 81.9557 15.8972V15.8682ZM97.9634 15.8682C95.9479 15.8682 94.6864 17.4922 94.6864 20.0804C94.6864 22.6686 95.9479 24.1765 98.1156 24.1765C99.7613 24.1765 100.834 23.147 101.052 21.4216H100.378C100.182 22.8715 99.4423 23.5965 98.2461 23.5965C96.7237 23.5965 96.0712 22.4221 96.0349 19.8049H101.037C101.001 17.2747 99.9426 15.8972 97.9634 15.8972V15.8682ZM125.73 15.8682C123.715 15.8682 122.461 17.4922 122.461 20.0804C122.461 22.6686 123.715 24.1765 125.883 24.1765C127.528 24.1765 128.601 23.147 128.819 21.4216H128.144C127.949 22.8715 127.209 23.5965 126.02 23.5965C124.491 23.5965 123.845 22.4221 123.802 19.8049H128.833C128.768 17.2747 127.709 15.8972 125.73 15.8972V15.8682ZM139.222 16.0639L138.838 18.2389H139.171C139.78 16.7309 140.049 16.4989 141.136 16.4989H143.202L138.65 24.0388H144.449L144.884 21.6246H144.536C144.029 23.1543 143.558 23.6038 142.419 23.6038H140.433L145 16.1146L139.222 16.0639ZM60.9964 16.3031C62.0911 16.3031 62.6421 17.2384 62.7436 19.2031H59.1187C59.2855 17.3181 59.9597 16.3322 60.9964 16.3322V16.3031ZM81.934 16.3031C83.0287 16.3031 83.5797 17.2384 83.6812 19.2031H80.0563C80.2593 17.3181 80.861 16.3322 81.934 16.3322V16.3031ZM97.9489 16.3031C99.0363 16.3031 99.5946 17.2384 99.6961 19.2031H96.0712C96.2089 17.3181 96.8759 16.3322 97.9489 16.3322V16.3031ZM125.716 16.3031C126.803 16.3031 127.361 17.2384 127.463 19.2031H123.838C124.005 17.3181 124.643 16.3322 125.716 16.3322V16.3031ZM89.6188 16.4337C90.8658 16.4337 91.5038 17.7097 91.5038 20.1819C91.5038 22.5091 90.8803 23.7198 89.6696 23.7198C88.4588 23.7198 87.8281 22.4656 87.8281 20.0949C87.8281 17.7242 88.4153 16.4627 89.6188 16.4627V16.4337ZM115.624 18.3984H117.233C117.551 18.359 117.872 18.3863 118.178 18.4787C118.484 18.5711 118.767 18.7265 119.01 18.9348C119.44 19.4765 119.654 20.1584 119.611 20.8488C119.611 22.5308 118.778 23.4732 117.277 23.4732H116.675C115.783 23.4732 115.638 23.3355 115.638 22.596L115.624 18.3984ZM108.889 19.0654V19.9353H112.637V19.0654H108.889Z" fill="#2C2C31"/>
</svg>
