<svg xmlns="http://www.w3.org/2000/svg" width="128" height="34" fill="#2c2c31" xmlns:v="https://vecta.io/nano"><path d="M16.008 27.117l-.096.089a6.99 6.99 0 0 1-4.967 2.309c-3.69 0-6.362-2.767-6.362-6.588s2.672-6.581 6.362-6.581c.942.031 1.867.252 2.721.65a6.98 6.98 0 0 1 2.247 1.666l.096.096 2.369-2.87-.066-.081a9.05 9.05 0 0 0-3.218-2.582c-1.257-.601-2.636-.904-4.03-.885a11 11 0 0 0-7.514 2.759A11.19 11.19 0 0 0 .354 22.93c0 2.927 1.147 5.739 3.195 7.831 2.065 1.836 4.75 2.822 7.514 2.759a9.05 9.05 0 0 0 4.03-.886 9.04 9.04 0 0 0 3.218-2.582l.066-.074-2.369-2.863zm4.769 6.012h4.192V12.672h-4.192v20.457zm20.612-4.448a6.05 6.05 0 0 1-3.1 1.025c-1.351 0-1.963-.738-1.963-2.309V16.545H40.6v-3.851h-4.274V6.313l-4.111 2.213v4.168h-3.543v3.851h3.543v11.546c0 3.15 1.867 5.297 4.65 5.349a6.6 6.6 0 0 0 3.691-.937h.044l1.004-3.939-.243.148.029-.03zm3.472 4.448h4.192V12.672h-4.192v20.457zm71.055-28.233v19.506l1.306-2.029 6.643-9.591h2.613l-5.167 7.097 6.355 13.228h-2.568l-5.307-11.214-3.853 5.393v5.821h-2.414V6.239l2.392-1.365v.022zM96.26 15.224a6.34 6.34 0 0 1 2.346-2.132c.95-.501 2.012-.752 3.086-.73 4.509 0 6.901 2.877 6.901 8.314v12.446h-2.399V21.193c0-4.633-1.609-6.78-5.093-6.78-3.336 0-5.329 2.538-5.329 6.78v11.929h-2.391V12.805h2.391v3.15l.487-.73zm-14.703-2.862c4.643 0 6.894 2.117 6.894 6.485v14.275H86.06v-2.951l-.465.516a8.02 8.02 0 0 1-2.769 2.136c-1.069.5-2.236.758-3.416.755-1.89 0-6.274-.627-6.274-6.411 0-4.729 3.904-6.411 7.565-6.411 1.726-.028 3.432.37 4.967 1.158l.391.221v-2.951c0-3.239-1.579-4.876-4.702-4.876a10.75 10.75 0 0 0-5.447 1.475c-.155-.361-.738-1.586-.864-1.933a14.16 14.16 0 0 1 6.51-1.527v.037zm-6.074 14.607c0 3.04 1.572 4.714 4.429 4.714 1.204-.003 2.389-.3 3.452-.866a7.38 7.38 0 0 0 2.645-2.38l.044-.074v-4.426l-.133-.074c-1.648-.9-3.513-1.324-5.388-1.225-3.159-.037-5.049 1.593-5.049 4.331zM57.031 4.903V15.77l.465-.502a7.8 7.8 0 0 1 5.956-2.892c4.488 0 7.064 3.74 7.064 10.255 0 6.64-2.952 10.948-7.455 10.948a6.99 6.99 0 0 1-5.565-2.693l-.465-.539v2.789h-2.384V6.268a187.47 187.47 0 0 1 2.384-1.365h0zm.059 12.638l-.059.081v10.579l.044.059a6.9 6.9 0 0 0 2.461 2.369c1.006.571 2.139.88 3.296.899 3.536 0 5.329-2.951 5.329-8.853 0-5.245-1.986-8.248-5.447-8.248-2.096 0-3.986 1.048-5.624 3.113m-5.52-8.49A20.39 20.39 0 0 0 34.878.371c-3.275 0-6.502.789-9.408 2.299s-5.404 3.699-7.284 6.379l-.199.273h4.834l.052-.052a16.46 16.46 0 0 1 5.463-3.839 16.47 16.47 0 0 1 13.078 0 16.46 16.46 0 0 1 5.463 3.839l.052.052h4.834l-.192-.273z"/></svg>