<svg width="148" height="27" viewBox="0 0 148 27" fill="none" xmlns="http://www.w3.org/2000/svg">
<path d="M80.0376 11.053C79.9638 11.2079 79.8826 11.3629 79.8088 11.5252C77.8406 16.0401 75.887 20.5551 73.9483 25.0701C73.9301 25.1486 73.8965 25.2229 73.8495 25.2884C73.8024 25.354 73.743 25.4096 73.6744 25.4521C73.6058 25.4946 73.5294 25.5232 73.4498 25.5361C73.3701 25.549 73.2887 25.5461 73.2102 25.5275C72.6548 25.4905 72.0975 25.4905 71.5421 25.5275C71.3811 25.5565 71.2151 25.5232 71.0779 25.4341C70.9407 25.3449 70.8428 25.2069 70.804 25.048C69.4164 21.6765 68.0067 18.3124 66.6043 14.9557L65.1281 11.5104C65.0668 11.3376 64.9533 11.1881 64.8033 11.0825C64.0652 15.8705 63.3714 20.6732 62.6481 25.4758H55.8945C57.3707 17.0951 58.8469 8.72917 60.3231 0.318941H63.0762C64.2424 0.318941 65.4012 0.318941 66.56 0.318941C66.705 0.298739 66.8524 0.333817 66.9727 0.417192C67.093 0.500568 67.1775 0.626129 67.2095 0.768952C68.8628 4.95931 70.5235 9.13984 72.1916 13.3105L72.3909 13.7827C72.509 13.5466 72.5902 13.3917 72.6566 13.2368C74.3764 9.11281 76.1035 4.9962 77.8233 0.864861C77.8674 0.681776 77.9799 0.522496 78.1377 0.419624C78.2956 0.316752 78.4867 0.278078 78.6721 0.311557C80.7093 0.311557 82.739 0.311557 84.8352 0.311557C86.1711 8.69966 87.5071 17.0656 88.8505 25.4758H82.0895L80.1557 11.0752L80.0376 11.053Z" fill="#2C2C31"/>
<path d="M17.0775 25.4899C17.0775 25.2465 17.0775 25.0325 17.0775 24.8186C17.0775 21.7938 17.0775 18.7618 17.0775 15.7371C17.0775 15.2797 16.9668 15.1247 16.4944 15.1321C13.5789 15.1321 10.6635 15.1321 7.75537 15.1321C7.30513 15.1321 7.18703 15.2722 7.19441 15.7075C7.19441 18.7544 7.19441 21.8012 7.19441 24.8407V25.4826H0.396484V0.399414H7.19441V0.974873C7.19441 3.77091 7.19441 6.56693 7.19441 9.35558C7.19441 9.89413 7.35681 9.99003 7.85133 9.99003C10.7078 9.99003 13.5716 9.99003 16.4354 9.99003H17.0701V0.399414H23.9049V25.5489L17.0775 25.4899Z" fill="#2C2C31"/>
<path d="M29.3676 0.341797H36.1064C36.1064 0.592628 36.1064 0.821328 36.1064 1.07954C36.1064 6.07404 36.1064 11.076 36.1507 16.0705C36.1575 16.6914 36.2318 17.3098 36.3722 17.9148C36.7707 19.7296 37.8483 20.674 39.8928 20.8658C40.8275 20.9475 41.7693 20.8802 42.6828 20.6666C43.3895 20.5068 44.0239 20.119 44.4882 19.563C44.9524 19.007 45.2206 18.3137 45.2514 17.5902C45.3942 16.4548 45.4633 15.3114 45.4581 14.1671C45.4581 9.74068 45.4581 5.38794 45.4581 0.991012V0.356566H52.1895V1.00578C52.1895 6.27324 52.1231 11.5407 52.1895 16.8082C52.2855 22.3191 48.9936 25.2111 44.8603 26.1554C41.4154 27.0717 37.763 26.8121 34.4826 25.4177C32.9226 24.7952 31.5909 23.7098 30.6671 22.3076C29.7432 20.9054 29.2717 19.2538 29.3159 17.5755C29.2643 11.9834 29.3159 6.39865 29.3159 0.813961C29.3381 0.659036 29.3528 0.526232 29.3676 0.341797Z" fill="#2C2C31"/>
<path d="M134.087 18.1207C132.736 19.6847 131.43 21.2044 130.116 22.7094C129.171 23.8012 128.212 24.9226 127.252 25.9775C127.182 26.0694 127.1 26.1513 127.009 26.221C126.921 26.2544 126.829 26.2719 126.736 26.2726C126.736 26.1841 126.684 26.0808 126.736 26.0071C126.797 25.8688 126.874 25.7377 126.964 25.616C128.883 22.6651 130.805 19.7412 132.729 16.8444C132.972 16.4681 132.98 16.4681 132.633 16.1067C132.242 16.5714 131.895 17.0509 131.482 17.5009C129.021 20.3879 126.534 23.2676 124.019 26.1399C123.872 26.2736 123.709 26.3877 123.532 26.4792L123.407 26.3391C123.49 26.164 123.584 25.994 123.687 25.83L131.068 14.7639C131.356 14.336 131.371 14.3434 131.068 14.0262C130.994 14.1147 130.913 14.1885 130.839 14.277L120.764 26.1767C120.625 26.3084 120.471 26.4248 120.307 26.5235L120.174 26.4055C120.255 26.2358 120.314 26.0513 120.41 25.889C123.252 21.315 126.226 16.8296 129.511 12.5581C129.754 12.2409 129.681 12.049 129.511 11.8203L120.964 0.754242L120.617 0.274694H121.082C123.525 0.274694 125.968 0.274694 128.404 0.274694C128.542 0.261747 128.681 0.288145 128.805 0.350791C128.929 0.413437 129.033 0.509772 129.105 0.628794C130.537 2.60594 131.983 4.5757 133.423 6.53071L133.88 7.14309C134.094 6.88489 134.286 6.67828 134.456 6.45696C135.932 4.52408 137.408 2.58383 138.885 0.658333C139.026 0.463008 139.238 0.330612 139.475 0.289463C142.287 0.289463 145.099 0.289463 148.03 0.289463C144.716 4.57573 141.446 8.78824 138.169 13.0302L147.712 25.616C147.498 25.616 147.358 25.6603 147.218 25.6603C144.745 25.6603 142.265 25.6603 139.792 25.6603C139.646 25.6697 139.5 25.6389 139.37 25.5713C139.24 25.5037 139.131 25.4018 139.054 25.2767C137.539 23.0733 136.016 20.8749 134.486 18.6814C134.345 18.4674 134.235 18.3199 134.087 18.1207Z" fill="#2C2C31"/>
<path d="M91.248 25.5199L91.6171 24.5314C94.7811 16.608 97.9426 8.68474 101.102 0.761412C101.135 0.619433 101.22 0.494826 101.34 0.411724C101.46 0.328622 101.606 0.292923 101.751 0.311402C103.926 0.311402 106.099 0.311402 108.269 0.311402C108.414 0.294889 108.561 0.332365 108.68 0.416677C108.8 0.50099 108.885 0.626271 108.918 0.768797C112.107 8.85934 115.305 16.9499 118.513 25.0405C118.565 25.1806 118.595 25.3207 118.654 25.5199H116.69C115.111 25.5199 113.524 25.5199 111.944 25.5199C111.792 25.5458 111.635 25.5109 111.508 25.4226C111.381 25.3343 111.294 25.1998 111.265 25.0478C109.297 19.6377 107.329 14.2277 105.36 8.81756C105.282 8.56527 105.148 8.33346 104.969 8.13881C104.888 8.35275 104.8 8.5593 104.726 8.76587C102.713 14.176 100.698 19.5861 98.6806 24.9961C98.6665 25.0782 98.6361 25.1566 98.591 25.2266C98.5459 25.2966 98.4872 25.3569 98.4183 25.4037C98.3494 25.4506 98.2717 25.483 98.19 25.4992C98.1082 25.5154 98.0241 25.5149 97.9425 25.4978C95.9054 25.4978 93.8682 25.4978 91.8311 25.4978L91.248 25.5199Z" fill="#2C2C31"/>
</svg>
