<svg xmlns="http://www.w3.org/2000/svg" width="111" height="24" fill="none" xmlns:v="https://vecta.io/nano"><g clip-path="url(#A)" fill="#2c2c31"><path d="M20.65 23.569l-1.77-.544c-4.364-1.036-7.069-4.285-7.436-8.719-.378-4.478 1.087-8.021 5.198-10.106 3.263-1.661 6.759-1.789 10.226-.498a1.48 1.48 0 0 1 .767 1.069c.092 1.332.035 2.675.035 4.328-3.214-1.846-6.436-3.192-8.782.701-1.387 2.3-.672 5.829 1.088 7.613 1.86 1.903 4.043 2.004 7.814.41 1.136 1.939.473 4.059-1.523 4.81-.87.329-1.756.62-2.637.93l-2.98.005zM92.289 7.952l.041-3.806c.014-.218.544-.574.843-.574l16.795-.024c.734 0 1.063.272 1.03 1.036V7.89l-5.93-.848-.09 1.686.019 12.618c0 .979-.271 1.384-1.296 1.332a36.85 36.85 0 0 0-4.062 0c-1.101.063-1.506-.272-1.493-1.419l.019-12.349c0-1.688-.139-1.903-1.846-1.699-1.291.15-2.55.465-4.029.742zM1.221 9.556l6.784-2.882c.07.389.117.782.141 1.177l.022 13.423c0 1.049-.329 1.46-1.397 1.398a29.31 29.31 0 0 0-3.654-.019c-1.136.079-1.359-.413-1.335-1.419V13.45c-.052-1.232-.348-2.452-.56-3.893zM0 4.015v-.272C.022-.088.046-.262 3.902.284c2.031.288 3.97 1.272 5.927 2.001.767.272.666.816.03 1.153l-8.635 4.35c-.816.411-1.188-.03-1.21-.816v-2.95L0 4.015zm89.687-.536l-13.689.022a11.02 11.02 0 0 0-1.147.125c.37 1.172.932 2.175.957 3.176.102 4.073.095 8.147-.019 12.221a2.72 2.72 0 0 1-1.177 1.988c-.881.489-1.8-.111-2.2-.992a72.78 72.78 0 0 1-2.153-5.299L66.7 4.6c-.288-.84-.761-1.156-1.691-1.128-2.393.071-4.788.019-7.183.027-.424 0-.848.068-1.074.087.079 1.332.478 2.583.152 3.608-1.34 4.209-2.863 8.363-4.394 12.507-.685 1.849-2.11 2.05-3.181.411-1.313-2.006-2.425-4.143-3.657-6.281.585-.272 1.033-.457 1.455-.688 2.058-1.136 3.032-2.833 2.787-5.204-.201-1.93-1.438-3.396-3.621-4.027-.822-.243-1.672-.376-2.529-.394-3.929-.041-7.86-.024-11.792 0a11.66 11.66 0 0 0-1.555.247c1.721 1.754 1.403 3.679 1.408 5.538v9.671c0 3.728 0 3.728 3.719 3.728 3.203 0 3.203 0 3.203-3.192v-5.511c1.658 2.572 2.961 5.201 4.386 7.762a2.13 2.13 0 0 0 .674.617 2.15 2.15 0 0 0 .87.278c3.159.082 6.327-.035 9.486.073 1.3.044 1.903-.397 2.175-1.593a16.04 16.04 0 0 1 .933-2.792c.16-.364.62-.837.962-.851 1.887-.084 3.782-.041 5.677-.041.47 1.447.935 2.752 1.313 4.078.247.873.704 1.188 1.631 1.18h14.502c1.088 0 1.411-.343 1.376-1.387-.068-2.042-.022-4.078-.022-6.253 1.525 0 2.877.035 4.225-.022.381-.016 1.055-.272 1.071-.479.101-1.21.052-2.433.052-3.556-1.612.188-2.974.411-4.35.462-.323.014-.916-.53-.954-.865-.122-1.088-.046-2.216-.046-3.518 2.654.052 5.141-.43 7.526.658.174.079.816-.31.84-.544.109-.745-.019-1.523.052-2.276.12-1.096-.294-1.465-1.438-1.452zm-50.843 9.848V6.962c2.779-.318 4.258.503 4.535 2.466.242 1.8-1.514 3.333-4.543 3.899h.008zm19.823.881l1.96-6.525.272-.041 2.009 6.561-4.242.005z"/></g><defs><clipPath id="A"><path fill="#fff" transform="translate(0 .059)" d="M0 0h111v23.507H0z"/></clipPath></defs></svg>