<svg xmlns="http://www.w3.org/2000/svg" width="148" height="20" fill="none" xmlns:v="https://vecta.io/nano"><path d="M101.375 9.744c0 4.729-2.952 7.946-6.428 7.946-4.643 0-7.669-3.312-7.669-8.609 0-4.64 3.122-7.85 6.436-7.85 5.012.089 7.661 4.257 7.661 8.513h0zm-45.518 9.074c.288 0 .568-.088.568-.568l.096-2.553V3.687c0-1.136.472-2.368 1.801-2.368.28 0 .28-.568 0-.568l-1.521.096h-1.698L52.543.751c-.184 0-.281.568 0 .568 1.801 0 2.273 1.232 2.273 2.368v10.594l-9.182-9.745L42.416.847c-.036-.051-.082-.094-.134-.126a.46.46 0 0 0-.357-.052.46.46 0 0 0-.165.082c-.086.064-.151.152-.185.254s-.037.211-.007.314v14.474c0 1.136-.472 2.368-1.801 2.368-.281 0-.281.568 0 .568l1.52-.096h1.609l2.554.096c.184 0 .28-.568 0-.568-1.801 0-2.273-1.232-2.273-2.368v-9.93l9.75 10.402 2.362 2.464a1.29 1.29 0 0 0 .568.088h0zm-24.357 0c.192 0 .281-.568 0-.568-1.609 0-1.985-1.225-1.985-2.361V3.591c0-1.321.472-2.361 1.476-2.361.281 0 .281-.568 0-.568L29.19.751h-2.214L25.182.662c-.192 0-.288.568 0 .568 1.041 0 1.513.944 1.513 2.361v12.298c0 1.136-.472 2.361-1.986 2.361-.288 0-.288.568 0 .568l2.266-.088h2.214l2.31.088zm-15.33.384a4.54 4.54 0 0 0 2.273-.568c.089-.096.089-.472-.192-.472h-.192c-1.321 0-3.307-1.52-4.539-2.84l-6.532-6.64 4.731-4.817c1.897-1.896 2.746-2.368 4.355-2.648.288-.096.288-.568 0-.568L13.8.736h-.738L11.357.647c-.288 0-.377.089-.377.184 0 .288.377.384.377.944 0 .288-.096.568-.664 1.136l-5.58 5.393V3.48c0-1.136.472-2.361 1.985-2.361.28 0 .28-.568 0-.568L4.825.647H2.611L.345.551c-.192 0-.288.568 0 .568 1.609 0 1.985 1.225 1.985 2.361v12.298c0 1.136-.472 2.368-1.985 2.368-.288 0-.288.568 0 .568l2.266-.096h2.214l2.273.096c.192 0 .28-.568 0-.568-1.609 0-1.985-1.232-1.985-2.368v-5.577l6.052 6.426c2.081 2.272 3.506 2.56 5.019 2.56l-.015.015zm57.269-.398c.192 0 .288-.568 0-.568-2.081 0-2.273-1.225-2.273-2.361V9.817l2.369-.089c2.081-.096 2.554.28 2.65 1.697 0 .192.192.288.376.288.039.006.079.003.117-.009a.25.25 0 0 0 .162-.162c.012-.038.015-.078.009-.117l.089-2.08.288-2.213c0-.184-.568-.28-.568-.096-.006.201-.053.399-.139.581s-.207.345-.358.478-.327.234-.518.297-.393.086-.594.067h-3.882V2.123l3.034-.192c1.986-.192 2.554.288 2.65 1.896 0 .184.184.28.376.28.038.006.078.004.114-.008s.071-.032.098-.06.048-.061.06-.098.015-.076.008-.114l.096-1.896.192-1.321c0-.192-.288-.192-.376-.192a4.85 4.85 0 0 1-1.52.192h-7.189L66.434.514c-.185 0-.28.568 0 .568 1.609 0 1.985 1.225 1.985 2.361v12.298c0 1.136-.472 2.368-1.985 2.368-.28 0-.28.568 0 .568l2.273-.096h2.214l2.517.221zm72.016.384c.795.015 1.579-.181 2.274-.568.096-.096.096-.472-.192-.472h-.185c-1.328 0-3.314-1.52-4.546-2.84l-6.525-6.713 4.163-4.168c2.362-2.361 3.026-2.951 5.166-3.305.288-.096.288-.568 0-.568l-2.553.096h-.739l-1.705-.096c-.28 0-.376.096-.376.184 0 .288.376.384.376.952 0 .28-.088.568-.656 1.136l-5.492 5.481V3.48c0-1.136.472-2.361 1.986-2.361.287 0 .287-.568 0-.568l-2.266.096h-2.178l-2.273-.096c-.192 0-.281.568 0 .568 1.609 0 1.985 1.225 1.985 2.361v12.298c0 1.136-.472 2.368-1.985 2.368-.281 0-.281.568 0 .568l2.273-.096h2.178l2.266.096c.191 0 .287-.568 0-.568-1.609 0-1.986-1.232-1.986-2.368v-5.577l6.06 6.426c1.985 2.272 3.403 2.56 4.916 2.56h.014zm-23.102-.384l.28-3.969c0-.192-.376-.288-.472 0-.415.859-1.057 1.589-1.857 2.109a5.23 5.23 0 0 1-2.682.842c-1.801 0-2.554-.944-2.554-2.649V3.502c0-1.136.472-2.361 1.985-2.361.281 0 .281-.568 0-.568l-2.273.096h-2.214l-2.266-.096c-.192 0-.288.568 0 .568 1.602 0 1.985 1.225 1.985 2.361v12.298c0 1.136-.472 2.368-1.985 2.368-.288 0-.288.568 0 .568l2.266-.096h7.196l2.591.162zm-38.041-8.418c0 4.426 4.82 8.705 10.031 8.705 4.731 0 9.839-3.504 9.839-10.328 0-4.353-4.923-8.698-10.031-8.698-4.827 0-9.839 4.345-9.839 10.328" fill="#2c2c31"/></svg>