<svg xmlns="http://www.w3.org/2000/svg" width="148" height="37" fill="#2c2c31" xmlns:v="https://vecta.io/nano"><path d="M0 22.051L73.027.111a2.8 2.8 0 0 1 1.557 0l73.035 21.94L74.452 5.43c-.425-.095-.866-.095-1.292 0L0 22.051zm0 1.506l73.315-13.368a2.75 2.75 0 0 1 .982 0l73.322 13.346-73.492-7.997c-.211-.022-.424-.022-.635 0L0 23.557zm8.717 7.096H7.16v-.657c0-.052 0-.081-.066-.081H1.846c-.011-.001-.022 0-.032.004a.1.1 0 0 0-.028.017c-.008.007-.014.017-.017.028s-.005.021-.004.032v1.756c0 .059 0 .089.081.089h5.248c.218.001.433.043.635.125a1.73 1.73 0 0 1 .524.354 1.55 1.55 0 0 1 .362.524 1.69 1.69 0 0 1 .125.642v1.756a1.76 1.76 0 0 1-.125.649c-.085.197-.208.375-.362.524a1.85 1.85 0 0 1-.524.347 1.58 1.58 0 0 1-.635.133H1.846a1.62 1.62 0 0 1-.65-.133 1.64 1.64 0 0 1-.871-.87 1.61 1.61 0 0 1-.125-.649v-.649h1.565v.649c-.001.011 0 .022.004.033s.01.02.017.027.017.014.028.017.021.005.032.004h5.248c.044 0 .066 0 .066-.081v-1.756c0-.052 0-.081-.066-.081H1.846a1.62 1.62 0 0 1-.65-.133c-.193-.08-.369-.198-.517-.347s-.269-.329-.354-.524a1.57 1.57 0 0 1-.125-.649v-1.756c-.004-.22.039-.439.125-.642a1.64 1.64 0 0 1 .354-.524c.146-.151.322-.269.517-.347a1.63 1.63 0 0 1 .65-.133h5.248a1.7 1.7 0 0 1 1.159.479 1.55 1.55 0 0 1 .362.524 1.69 1.69 0 0 1 .125.642l-.022.657zm10.815-2.309v1.571h-3.476v6.979h-1.579v-6.979h-3.491v-1.564l8.547-.007zm10.847 3.962a1.56 1.56 0 0 1-.133.642 1.82 1.82 0 0 1-.354.524 1.68 1.68 0 0 1-.531.354c-.202.089-.421.134-.642.133h-.465l2.126 2.523v.406h-1.712l-2.465-2.951h-2.805v2.951h-1.565v-8.536h6.886a1.56 1.56 0 0 1 .642.133 1.67 1.67 0 0 1 .531.354 1.86 1.86 0 0 1 .354.531c.088.2.134.416.133.634v2.302zm-1.661.081c.011.001.022 0 .032-.004s.02-.01.027-.017.014-.017.017-.028.005-.021.004-.032v-2.302c.001-.011 0-.022-.004-.032s-.01-.02-.017-.027-.017-.014-.027-.017-.022-.005-.032-.004h-5.233c-.059 0-.089 0-.089.081v2.302c0 .052 0 .081.089.081h5.233zm11.211-4.043c.435.008.851.179 1.166.479a1.64 1.64 0 0 1 .354.524c.089.202.134.421.133.642v5.245a1.62 1.62 0 0 1-.133.649 1.73 1.73 0 0 1-.354.524 1.8 1.8 0 0 1-.531.347 1.56 1.56 0 0 1-.635.133h-5.241c-.223.002-.445-.043-.649-.133a1.85 1.85 0 0 1-.524-.347c-.147-.152-.265-.329-.347-.524a1.62 1.62 0 0 1-.133-.649v-5.245a1.56 1.56 0 0 1 .133-.642c.08-.196.198-.373.347-.524a1.7 1.7 0 0 1 1.173-.479h5.241zm0 6.972c.052 0 .074 0 .074-.081V29.99c0-.052 0-.081-.074-.081h-5.241c-.059 0-.088 0-.088.081v5.245c0 .059 0 .081.088.081h5.241zm11.355-6.972h1.58v8.543h-1.712l-5.27-6.263v6.263h-1.565v-8.543h1.705l5.263 6.263v-6.263zm12.872 2.309h-1.572v-.664c0-.052 0-.081-.089-.081h-5.233c-.011-.001-.022 0-.032.004a.1.1 0 0 0-.028.017c-.008.007-.014.017-.017.028s-.005.021-.004.032v5.245c-.001.011 0 .022.004.032a.1.1 0 0 0 .017.028c.007.008.017.014.028.017s.021.005.032.004h5.255c.059 0 .089 0 .089-.081v-1.63h-1.941V32.04h3.513v3.18a1.62 1.62 0 0 1-.125.649 1.73 1.73 0 0 1-.354.524c-.158.143-.337.26-.531.347a1.61 1.61 0 0 1-.65.133h-5.233a1.56 1.56 0 0 1-.642-.133 1.75 1.75 0 0 1-.524-.347 1.73 1.73 0 0 1-.354-.524 1.76 1.76 0 0 1-.126-.649v-5.245c0-.22.042-.438.126-.642a1.64 1.64 0 0 1 .354-.524c.151-.15.326-.27.524-.347.202-.089.421-.134.642-.133h5.233a1.6 1.6 0 0 1 .65.133 1.7 1.7 0 0 1 .531.347 1.64 1.64 0 0 1 .354.524 1.54 1.54 0 0 1 .125.642l-.022.679zm9.875-2.309a1.43 1.43 0 0 1 .561.111 1.41 1.41 0 0 1 .738.738 1.43 1.43 0 0 1 .111.561v7.119h-.959v-3.121h-6.643v3.121h-.893v-7.119c-.001-.192.037-.383.111-.561.072-.167.175-.32.303-.45a1.38 1.38 0 0 1 .45-.302c.175-.074.364-.112.554-.111l5.669.015zm.465 4.463v-3.039c.001-.06-.01-.12-.033-.176s-.057-.106-.1-.149a.45.45 0 0 0-.332-.14h-5.698c-.061-.001-.121.011-.177.036a.44.44 0 0 0-.147.105c-.041.045-.077.093-.1.149s-.034.116-.033.176v3.039h6.621zm12.274-.523c.002.19-.036.379-.111.553a1.58 1.58 0 0 1-.31.45 1.38 1.38 0 0 1-.45.303 1.26 1.26 0 0 1-.553.118H84.04l2.679 3.18h-1.27l-2.672-3.18h-3.13-.214-.251v3.231h-.959v-8.536h7.123a1.38 1.38 0 0 1 .553.118 1.29 1.29 0 0 1 .45.31 1.47 1.47 0 0 1 .31.45 1.35 1.35 0 0 1 .111.546v2.457zm-1.425.45a.45.45 0 0 0 .45-.45v-2.508c0-.06-.011-.12-.034-.176a.45.45 0 0 0-.099-.149.43.43 0 0 0-.145-.1c-.055-.023-.113-.034-.173-.033h-5.698c-.06-.001-.12.01-.176.033s-.107.057-.149.1-.08.091-.105.148-.036.116-.036.177v2.508c-.001.06.011.119.035.174s.06.104.105.143.093.077.149.1.116.034.176.033h5.698zm12.519-4.39h1.321v8.543h-.96v-7.451l-3.912 4.64-3.904-4.64v7.451h-.96v-8.543h1.321l3.543 4.22 3.55-4.22zm16.8 0v.959h-3.786v7.584h-.967v-7.584h-3.794v-.959h8.547zm10.132.959h-6.835v2.826h5.491v.974h-5.491v2.818h6.835v.966h-7.802v-8.543h7.802v.959zm4.148 0a.48.48 0 0 0-.465.465v5.695a.43.43 0 0 0 .035.177c.024.056.06.106.105.147a.45.45 0 0 0 .149.1c.056.023.116.034.176.033h7.101v.966h-7.101a1.32 1.32 0 0 1-.561-.118c-.169-.069-.322-.172-.45-.303s-.236-.288-.307-.46-.107-.357-.106-.543v-5.695a1.42 1.42 0 0 1 .11-.561c.143-.331.407-.595.738-.738.178-.074.369-.112.561-.111h7.101v.959l-7.086-.015zm18.497-.959v8.543h-.974v-3.785h-6.82v3.785h-.967v-8.543h.967v3.785h6.82v-3.785h.974z"/></svg>