<svg width="136" height="44" viewBox="0 0 136 44" fill="none" xmlns="http://www.w3.org/2000/svg">
<path d="M0.966498 30.9804C0.859211 29.4754 0.829652 27.966 0.87793 26.458L3.04793 2.1126H11.0046L8.8346 26.7088C8.37698 32.05 10.4584 35.8273 15.7875 35.8273C21.1165 35.8273 24.0689 32.0058 24.5265 27.2695L26.822 2.1126H34.8156L32.6013 26.9302C31.686 36.5208 25.3606 43.6621 15.1158 43.6621C7.12222 43.6621 1.95556 38.4979 0.959133 31.0172L0.966498 30.9804ZM38.0558 22.7619C39.0965 11.0687 47.0089 1.36747 60.6194 1.36747C64.3463 1.3026 68.0054 2.36743 71.1151 4.42173L70.1998 14.0935C67.0777 9.92525 63.3282 9.2834 59.8665 9.2834C51.371 9.2834 46.7063 15.1853 46.042 22.6143C45.4146 29.9179 49.1641 35.8125 57.4087 35.8125C60.9958 35.8125 64.7896 34.7797 68.7753 30.7812L67.9044 40.7185C64.52 42.6655 60.6933 43.7144 56.7886 43.7654C43.252 43.7654 37.052 33.7395 38.041 22.7841L38.0558 22.7619ZM77.5218 2.12737H85.471L82.5186 35.2371H93.9296H98.2179C98.2179 35.6281 97.4798 42.8506 97.4798 42.8506H73.8608L77.4922 2.1642L77.5218 2.12737ZM121.04 0.31985H120.457L98.646 42.8506H107.134L110.175 36.3953H125.579L127.498 42.8506H135.905L121.099 0.246094L121.04 0.31985ZM119.062 17.2731C119.286 16.7256 119.48 16.1667 119.645 15.5985H119.77C119.812 16.1793 119.908 16.7548 120.058 17.3174C120.472 19.1691 123.601 29.4532 123.601 29.4532H113.519C113.519 29.4532 118.936 17.5756 119.062 17.2731V17.2731Z" fill="#2C2C31"/>
</svg>
