<svg width="20" height="19" viewBox="0 0 20 19" fill="none" xmlns="http://www.w3.org/2000/svg">
<path d="M5.83171 0C2.61587 0 0 2.48738 0 5.54321V13.4599C0 16.5149 2.61829 19 5.83496 19H14.1683C17.3841 19 20 16.5126 20 13.4568V5.54012C20 2.48508 17.3817 0 14.165 0H5.83171ZM15.8333 3.16667C16.2933 3.16667 16.6667 3.52133 16.6667 3.95833C16.6667 4.39533 16.2933 4.75 15.8333 4.75C15.3733 4.75 15 4.39533 15 3.95833C15 3.52133 15.3733 3.16667 15.8333 3.16667ZM10 4.75C12.7575 4.75 15 6.88038 15 9.5C15 12.1196 12.7575 14.25 10 14.25C7.2425 14.25 5 12.1196 5 9.5C5 6.88038 7.2425 4.75 10 4.75ZM10 6.33333C9.11594 6.33333 8.2681 6.66696 7.64298 7.26083C7.01786 7.85469 6.66667 8.66015 6.66667 9.5C6.66667 10.3399 7.01786 11.1453 7.64298 11.7392C8.2681 12.333 9.11594 12.6667 10 12.6667C10.8841 12.6667 11.7319 12.333 12.357 11.7392C12.9821 11.1453 13.3333 10.3399 13.3333 9.5C13.3333 8.66015 12.9821 7.85469 12.357 7.26083C11.7319 6.66696 10.8841 6.33333 10 6.33333Z" fill="#2C2C31"/>
</svg>
