<svg width="40" height="40" viewBox="0 0 40 40" fill="none" xmlns="http://www.w3.org/2000/svg">
<rect width="40" height="40" rx="4" fill="#2C2C31"/>
<path d="M23.842 8.27859C21.27 9.21517 19.6443 11.6286 19.8287 14.2701L19.8902 15.2892L18.8614 15.1647C15.1167 14.6858 11.8443 13.0634 9.06532 10.3378L7.70655 8.98547L7.35877 9.98352C6.61792 12.2093 7.09187 14.5613 8.63505 16.1433C9.4584 17.0168 9.27238 17.1413 7.85375 16.6221C7.36039 16.4555 6.92688 16.3309 6.88644 16.394C6.74247 16.5396 7.23583 18.4322 7.62729 19.1827C8.16271 20.2245 9.25296 21.2419 10.4467 21.8469L11.4561 22.3257L10.2607 22.3435C9.109 22.3435 9.06694 22.3645 9.1915 22.8029C9.60236 24.1552 11.228 25.5916 13.0397 26.216L14.316 26.6527L13.2047 27.3192C11.558 28.2784 9.62339 28.8187 7.68876 28.8575C6.76188 28.8785 6 28.961 6 29.0241C6 29.2312 8.51211 30.3958 9.97117 30.8552C14.3548 32.2075 19.5618 31.6236 23.4715 29.3153C26.2506 27.6718 29.0279 24.4043 30.3253 21.2403C31.0257 19.5564 31.7245 16.4765 31.7245 14.9997C31.7245 14.042 31.7859 13.9175 32.9377 12.7739C33.617 12.1074 34.2544 11.3795 34.3789 11.1724C34.586 10.7761 34.5633 10.7761 33.5151 11.1304C31.7665 11.7548 31.519 11.6723 32.3844 10.7357C33.0218 10.0693 33.7837 8.86254 33.7837 8.5099C33.7837 8.44844 33.4747 8.55196 33.1253 8.73798C32.7549 8.94665 31.9315 9.25885 31.3136 9.44487L30.2023 9.79912L29.1946 9.11003C28.6381 8.73636 27.8584 8.31903 27.446 8.19447C26.3945 7.90331 24.7899 7.94536 23.842 8.27859Z" fill="white"/>
</svg>
