<svg width="20" height="19" viewBox="0 0 20 19" fill="none" xmlns="http://www.w3.org/2000/svg">
<path d="M18.1818 0H1.81818C0.813636 0 0 0.772954 0 1.72727V17.2727C0 18.227 0.813636 19 1.81818 19H18.1818C19.1864 19 20 18.227 20 17.2727V1.72727C20 0.772954 19.1864 0 18.1818 0ZM6.32182 15.5455H3.64V7.34782H6.32182V15.5455ZM4.95364 6.17586C4.08909 6.17586 3.39 5.51 3.39 4.69041C3.39 3.87082 4.09 3.20582 4.95364 3.20582C5.81545 3.20582 6.51636 3.87168 6.51636 4.69041C6.51636 5.51 5.81545 6.17586 4.95364 6.17586ZM16.3673 15.5455H13.6873V11.5589C13.6873 10.608 13.6691 9.38514 12.2936 9.38514C10.8982 9.38514 10.6836 10.4206 10.6836 11.4898V15.5455H8.00364V7.34782H10.5764V8.46795H10.6127C10.9709 7.82368 11.8455 7.144 13.15 7.144C15.8655 7.144 16.3673 8.84191 16.3673 11.0494V15.5455Z" fill="#2C2C31"/>
</svg>
