<svg width="93" height="158" viewBox="0 0 93 158" fill="none" xmlns="http://www.w3.org/2000/svg">
<path d="M92.8544 133.003V0.0375977H0V133.003L46.4273 157.962L92.8544 133.003Z" fill="#002171"/>
<path d="M12.6795 122.252V125.737C12.6795 126.168 12.5472 126.509 12.2826 126.76C12.0226 127.01 11.679 127.135 11.2519 127.135C10.8247 127.135 10.4789 127.01 10.2142 126.76C9.95422 126.509 9.82422 126.168 9.82422 125.737H10.6251C10.6297 125.95 10.6832 126.12 10.7853 126.245C10.8921 126.37 11.0476 126.432 11.2519 126.432C11.4562 126.432 11.6117 126.37 11.7184 126.245C11.8252 126.115 11.8787 125.946 11.8787 125.737V122.252H12.6795ZM16.889 126.099H14.8624L14.5142 127.086H13.6855L15.4195 122.245H16.3388L18.0729 127.086H17.2372L16.889 126.099ZM16.6661 125.452L15.8792 123.205L15.0853 125.452H16.6661ZM22.8033 127.086H22.0094L19.6208 123.476V127.086H18.8268V122.245H19.6208L22.0094 125.848V122.245H22.8033V127.086ZM25.9892 126.008C26.4349 125.623 26.7854 125.308 27.0408 125.062C27.3008 124.812 27.5167 124.552 27.6885 124.284C27.8602 124.015 27.9461 123.745 27.9461 123.476C27.9461 123.198 27.8788 122.98 27.7442 122.823C27.6142 122.665 27.4075 122.586 27.1243 122.586C26.8504 122.586 26.6369 122.674 26.4837 122.85C26.3351 123.022 26.2562 123.254 26.2469 123.546H25.4808C25.4948 123.018 25.6526 122.614 25.9544 122.336C26.2608 122.053 26.6485 121.912 27.1174 121.912C27.6235 121.912 28.0181 122.051 28.3013 122.329C28.5891 122.607 28.733 122.978 28.733 123.442C28.733 123.776 28.6472 124.098 28.4754 124.409C28.3082 124.715 28.1063 124.99 27.8695 125.236C27.6374 125.477 27.3402 125.758 26.9781 126.078L26.6647 126.356H28.8723V127.017H25.4878V126.44L25.9892 126.008ZM29.5698 124.485C29.5698 123.683 29.7044 123.057 29.9737 122.607C30.2476 122.153 30.7165 121.926 31.3805 121.926C32.0443 121.926 32.511 122.153 32.7802 122.607C33.0542 123.057 33.1911 123.683 33.1911 124.485C33.1911 125.297 33.0542 125.932 32.7802 126.391C32.511 126.845 32.0443 127.073 31.3805 127.073C30.7165 127.073 30.2476 126.845 29.9737 126.391C29.7044 125.932 29.5698 125.297 29.5698 124.485ZM32.4111 124.485C32.4111 124.109 32.3856 123.792 32.3345 123.532C32.2881 123.272 32.1906 123.061 32.042 122.899C31.8935 122.732 31.673 122.649 31.3805 122.649C31.088 122.649 30.8674 122.732 30.7188 122.899C30.5703 123.061 30.4705 123.272 30.4194 123.532C30.373 123.792 30.3498 124.109 30.3498 124.485C30.3498 124.875 30.373 125.201 30.4194 125.466C30.4658 125.73 30.5633 125.943 30.7119 126.106C30.8651 126.268 31.088 126.349 31.3805 126.349C31.673 126.349 31.8935 126.268 32.042 126.106C32.1953 125.943 32.295 125.73 32.3415 125.466C32.3879 125.201 32.4111 124.875 32.4111 124.485ZM34.4699 126.008C34.9156 125.623 35.2661 125.308 35.5215 125.062C35.7815 124.812 35.9974 124.552 36.1691 124.284C36.3409 124.015 36.4268 123.745 36.4268 123.476C36.4268 123.198 36.3595 122.98 36.2248 122.823C36.0949 122.665 35.8882 122.586 35.605 122.586C35.3311 122.586 35.1175 122.674 34.9643 122.85C34.8158 123.022 34.7368 123.254 34.7275 123.546H33.9615C33.9755 123.018 34.1333 122.614 34.4351 122.336C34.7415 122.053 35.1292 121.912 35.5981 121.912C36.1042 121.912 36.4987 122.051 36.782 122.329C37.0698 122.607 37.2137 122.978 37.2137 123.442C37.2137 123.776 37.1279 124.098 36.9561 124.409C36.789 124.715 36.587 124.99 36.3502 125.236C36.118 125.477 35.8209 125.758 35.4588 126.078L35.1454 126.356H37.353V127.017H33.9685V126.44L34.4699 126.008ZM38.4892 126.008C38.9349 125.623 39.2855 125.308 39.5408 125.062C39.8008 124.812 40.0167 124.552 40.1885 124.284C40.3602 124.015 40.4461 123.745 40.4461 123.476C40.4461 123.198 40.3788 122.98 40.2442 122.823C40.1142 122.665 39.9075 122.586 39.6244 122.586C39.3505 122.586 39.1369 122.674 38.9837 122.85C38.8351 123.022 38.7562 123.254 38.7469 123.546H37.9808C37.9948 123.018 38.1526 122.614 38.4544 122.336C38.7608 122.053 39.1485 121.912 39.6174 121.912C40.1235 121.912 40.5181 122.051 40.8013 122.329C41.0892 122.607 41.2331 122.978 41.2331 123.442C41.2331 123.776 41.1472 124.098 40.9754 124.409C40.8082 124.715 40.6063 124.99 40.3695 125.236C40.1374 125.477 39.8402 125.758 39.4781 126.078L39.1647 126.356H41.3723V127.017H37.9878V126.44L38.4892 126.008ZM46.9291 124.235V124.902H44.0669V124.235H46.9291ZM52.5053 122.252V125.737C52.5053 126.168 52.3733 126.509 52.1085 126.76C51.8487 127.01 51.505 127.135 51.0779 127.135C50.6508 127.135 50.3048 127.01 50.0401 126.76C49.7802 126.509 49.6502 126.168 49.6502 125.737H50.451C50.4557 125.95 50.509 126.12 50.6114 126.245C50.718 126.37 50.8737 126.432 51.0779 126.432C51.2821 126.432 51.4378 126.37 51.5444 126.245C51.6511 126.115 51.7046 125.946 51.7046 125.737V122.252H52.5053ZM56.715 126.099H54.6882L54.34 127.086H53.5116L55.2457 122.245H56.1646L57.8988 127.086H57.0633L56.715 126.099ZM56.4921 125.452L55.7052 123.205L54.9111 125.452H56.4921ZM62.6291 127.086H61.8356L59.4469 123.476V127.086H58.6529V122.245H59.4469L61.8356 125.848V122.245H62.6291V127.086ZM65.8154 126.008C66.2607 125.623 66.6114 125.308 66.8667 125.062C67.1265 124.812 67.3428 124.552 67.5141 124.284C67.686 124.015 67.7719 123.745 67.7719 123.476C67.7719 123.198 67.7047 122.98 67.5702 122.823C67.4398 122.665 67.2336 122.586 66.9501 122.586C66.6761 122.586 66.4628 122.674 66.3097 122.85C66.1611 123.022 66.0822 123.254 66.0726 123.546H65.3069C65.3206 123.018 65.4788 122.614 65.7805 122.336C66.0868 122.053 66.4745 121.912 66.9435 121.912C67.4495 121.912 67.8442 122.051 68.1272 122.329C68.4148 122.607 68.5589 122.978 68.5589 123.442C68.5589 123.776 68.473 124.098 68.3011 124.409C68.1343 124.715 67.9321 124.99 67.6956 125.236C67.4631 125.477 67.1664 125.758 66.804 126.078L66.4906 126.356H68.6984V127.017H65.3135V126.44L65.8154 126.008ZM69.3959 124.485C69.3959 123.683 69.5303 123.057 69.7997 122.607C70.0737 122.153 70.5427 121.926 71.2063 121.926C71.8705 121.926 72.337 122.153 72.6064 122.607C72.8798 123.057 73.0168 123.683 73.0168 124.485C73.0168 125.297 72.8798 125.932 72.6064 126.391C72.337 126.845 71.8705 127.073 71.2063 127.073C70.5427 127.073 70.0737 126.845 69.7997 126.391C69.5303 125.932 69.3959 125.297 69.3959 124.485ZM72.2369 124.485C72.2369 124.109 72.2117 123.792 72.1606 123.532C72.1141 123.272 72.0166 123.061 71.868 122.899C71.7194 122.732 71.499 122.649 71.2063 122.649C70.9137 122.649 70.6933 122.732 70.5447 122.899C70.3961 123.061 70.2966 123.272 70.2455 123.532C70.199 123.792 70.1758 124.109 70.1758 124.485C70.1758 124.875 70.199 125.201 70.2455 125.466C70.2915 125.73 70.3891 125.943 70.5377 126.106C70.6908 126.268 70.9137 126.349 71.2063 126.349C71.499 126.349 71.7194 126.268 71.868 126.106C72.0211 125.943 72.1212 125.73 72.1672 125.466C72.2137 125.201 72.2369 124.875 72.2369 124.485ZM74.2961 126.008C74.7414 125.623 75.0921 125.308 75.3474 125.062C75.6072 124.812 75.8235 124.552 75.9948 124.284C76.1667 124.015 76.2526 123.745 76.2526 123.476C76.2526 123.198 76.1854 122.98 76.0509 122.823C75.9205 122.665 75.7143 122.586 75.4308 122.586C75.1568 122.586 74.9435 122.674 74.7904 122.85C74.6418 123.022 74.5629 123.254 74.5533 123.546H73.7876C73.8013 123.018 73.9594 122.614 74.2612 122.336C74.5675 122.053 74.9552 121.912 75.4242 121.912C75.9301 121.912 76.3249 122.051 76.6079 122.329C76.8955 122.607 77.0396 122.978 77.0396 123.442C77.0396 123.776 76.9536 124.098 76.7818 124.409C76.615 124.715 76.4128 124.99 76.1763 125.236C75.9438 125.477 75.6471 125.758 75.2847 126.078L74.9713 126.356H77.1791V127.017H73.7942V126.44L74.2961 126.008ZM77.8624 123.268C77.8902 122.837 78.055 122.501 78.3567 122.259C78.6635 122.018 79.0532 121.898 79.5268 121.898C79.8518 121.898 80.1328 121.955 80.3694 122.072C80.6064 122.188 80.7848 122.345 80.9056 122.545C81.0264 122.744 81.0871 122.969 81.0871 123.219C81.0871 123.507 81.0103 123.753 80.8571 123.956C80.704 124.16 80.5205 124.297 80.3067 124.367V124.395C80.5806 124.478 80.7944 124.631 80.9476 124.854C81.1007 125.072 81.1776 125.352 81.1776 125.695C81.1776 125.969 81.1149 126.212 80.9895 126.425C80.8642 126.639 80.6782 126.808 80.4321 126.933C80.1864 127.054 79.8912 127.114 79.5475 127.114C79.0462 127.114 78.6332 126.987 78.3082 126.732C77.9878 126.472 77.8159 126.101 77.7927 125.619H78.5589C78.5776 125.865 78.6726 126.066 78.8445 126.224C79.0163 126.377 79.2483 126.453 79.541 126.453C79.824 126.453 80.0424 126.377 80.1955 126.224C80.3486 126.066 80.4255 125.865 80.4255 125.619C80.4255 125.294 80.3209 125.065 80.1121 124.93C79.9074 124.791 79.592 124.722 79.1649 124.722H78.9835V124.068H79.1715C79.5475 124.063 79.8331 124 80.0282 123.88C80.2279 123.76 80.3279 123.569 80.3279 123.31C80.3279 123.087 80.2557 122.911 80.1121 122.781C79.9681 122.647 79.7639 122.579 79.499 122.579C79.2392 122.579 79.037 122.647 78.893 122.781C78.7495 122.911 78.6635 123.073 78.6357 123.268H77.8624Z" fill="white"/>
<path d="M37.5531 136.838V141.692H36.5781V136.838H37.5531ZM42.6739 141.692H41.6989L39.4914 138.361V141.692H38.5164V136.831H39.4914L41.6989 140.169V136.831H42.6739V141.692ZM45.3367 136.838C45.8473 136.838 46.2954 136.937 46.6808 137.136C47.0707 137.336 47.3702 137.621 47.5791 137.992C47.7927 138.358 47.8995 138.785 47.8995 139.272C47.8995 139.758 47.7927 140.185 47.5791 140.551C47.3702 140.913 47.0707 141.193 46.6808 141.393C46.2954 141.592 45.8473 141.692 45.3367 141.692H43.6374V136.838H45.3367ZM45.3018 140.864C45.8125 140.864 46.2072 140.726 46.4858 140.447C46.7643 140.169 46.9036 139.777 46.9036 139.272C46.9036 138.766 46.7643 138.372 46.4858 138.09C46.2072 137.802 45.8125 137.658 45.3018 137.658H44.6124V140.864H45.3018ZM49.6042 136.838V141.692H48.6293V136.838H49.6042ZM53.5483 140.767H51.6119L51.292 141.692H50.2681L52.0163 136.831H53.151L54.8993 141.692H53.8687L53.5483 140.767ZM53.2834 139.988L52.5803 137.957L51.8768 139.988H53.2834Z" fill="white"/>
<path d="M18.3862 102.18C19.6346 103.143 20.3912 104.466 20.6372 106.109L17.5916 106.374C17.1944 104.409 15.7945 103.314 13.8271 103.314C12.5787 103.314 11.5761 103.748 10.8194 104.598C10.0817 105.448 9.70332 106.582 9.70332 107.999C9.70332 109.492 10.0817 110.644 10.8573 111.456C11.6329 112.269 12.6354 112.685 13.8461 112.685C15.8134 112.685 17.2133 111.627 17.5916 109.681L20.6558 109.945C20.3909 111.589 19.6344 112.873 18.404 113.837C17.1737 114.8 15.68 115.273 13.9397 115.273C11.821 115.273 10.0808 114.612 8.73763 113.308C7.39449 112.004 6.73242 110.228 6.73242 107.999C6.73242 105.75 7.39404 103.994 8.73763 102.69C10.0812 101.385 11.8018 100.725 13.9208 100.725C15.6625 100.725 17.157 101.216 18.3862 102.18Z" fill="white"/>
<path d="M31.23 111.059H24.5145C24.5712 112.288 25.3279 113.043 26.5573 113.043C27.5409 113.043 28.1463 112.684 28.3544 111.967L31.1352 112.099C30.9649 113.025 30.454 113.799 29.603 114.384C28.7707 114.971 27.787 115.272 26.6332 115.272C25.1198 115.272 23.8903 114.819 22.9632 113.893C22.0362 112.967 21.582 111.739 21.582 110.19C21.582 108.622 22.0361 107.394 22.9632 106.487C23.8903 105.561 25.0819 105.107 26.5575 105.107C27.9762 105.107 29.1112 105.542 29.9625 106.411C30.8137 107.261 31.23 108.452 31.23 109.963V111.059ZM24.5145 109.227H28.4492C28.3924 107.999 27.7492 107.262 26.5386 107.262C25.3468 107.262 24.5902 107.999 24.5145 109.227Z" fill="white"/>
<path d="M37.9282 107.867C36.3393 107.867 35.3366 108.755 35.3366 110.115V115.065H32.5742V105.298H35.2414V106.412C35.7521 105.6 36.6602 105.203 37.9276 105.203L37.9282 107.867Z" fill="white"/>
<path d="M43.6219 107.678L43.603 111.305C43.603 112.306 44.2273 112.779 45.0786 112.779C45.3642 112.767 45.6486 112.736 45.9298 112.684V115.14C45.4224 115.214 44.9105 115.252 44.3977 115.254C42.1844 115.254 40.8228 114.158 40.8412 111.966L40.8603 107.677H39.082V105.297H40.8791L40.898 102.066H43.6604L43.6415 105.297H45.9304V107.678H43.6219Z" fill="white"/>
<path d="M50.4498 102.104C50.4514 102.322 50.4086 102.539 50.3241 102.74C50.2396 102.942 50.115 103.124 49.958 103.275C49.6415 103.576 49.2216 103.743 48.7851 103.743C48.3486 103.743 47.9288 103.576 47.6123 103.275C46.5529 102.331 47.4041 100.366 48.7851 100.442C49.0041 100.441 49.2211 100.482 49.4237 100.566C49.6262 100.649 49.8102 100.771 49.9651 100.926C50.1199 101.081 50.2424 101.264 50.3257 101.466C50.4089 101.669 50.451 101.886 50.4498 102.104ZM50.166 115.064H47.4036V105.297H50.166V115.064Z" fill="white"/>
<path d="M57.9802 100.328V102.708C57.7532 102.689 57.545 102.67 57.3372 102.67C56.3724 102.67 55.691 103.294 55.691 104.22V105.296H57.9615V107.677H55.691V115.064H52.948V107.678H51.1699V105.297H52.948V104.295C52.948 103.068 53.3079 102.105 54.0453 101.367C54.7828 100.63 55.7856 100.272 57.0153 100.272C57.3377 100.269 57.6602 100.288 57.9802 100.328ZM62.6716 102.104C62.6731 102.322 62.6302 102.539 62.5457 102.74C62.4613 102.942 62.3365 103.124 62.1798 103.275C61.8629 103.576 61.4434 103.743 61.0067 103.743C60.5705 103.743 60.1505 103.576 59.8341 103.275C58.7747 102.331 59.6258 100.366 61.0062 100.441C61.225 100.44 61.4424 100.482 61.6451 100.565C61.8477 100.648 62.0317 100.771 62.1864 100.925C62.3415 101.08 62.4639 101.264 62.5473 101.466C62.6307 101.668 62.6726 101.886 62.6716 102.104ZM62.3875 115.064H59.6253V105.296H62.3875V115.064Z" fill="white"/>
<path d="M73.3787 111.059H66.663C66.7196 112.288 67.4762 113.043 68.7055 113.043C69.6895 113.043 70.2946 112.684 70.5028 111.967L73.2837 112.099C73.1134 113.025 72.6024 113.799 71.7512 114.384C70.9193 114.971 69.9352 115.272 68.7813 115.272C67.268 115.272 66.0383 114.819 65.1118 113.893C64.1849 112.967 63.7305 111.739 63.7305 110.19C63.7305 108.622 64.1844 107.394 65.1118 106.487C66.0383 105.561 67.2301 105.107 68.706 105.107C70.1242 105.107 71.2594 105.542 72.1106 106.411C72.9622 107.261 73.3782 108.452 73.3782 109.963L73.3787 111.059ZM66.6635 109.227H70.5983C70.5412 107.999 69.8983 107.262 68.6878 107.262C67.4955 107.262 66.7388 107.999 66.663 109.227H66.6635Z" fill="white"/>
<path d="M84.4062 115.065H81.8149V114.064C81.2665 114.763 80.2071 115.273 78.9016 115.273C77.5202 115.273 76.3855 114.801 75.4964 113.875C74.6266 112.949 74.1914 111.721 74.1914 110.19C74.1909 108.66 74.6261 107.432 75.4964 106.506C76.3855 105.581 77.5207 105.108 78.9016 105.108C80.1313 105.108 81.0582 105.448 81.6638 106.147V100.385H84.4067L84.4062 115.065ZM76.991 110.19C76.991 111.91 77.9367 112.892 79.3554 112.892C80.7368 112.892 81.6633 111.966 81.6633 110.398V109.964C81.6633 108.434 80.7363 107.47 79.3554 107.47C77.9367 107.47 76.991 108.472 76.991 110.19Z" fill="white"/>
<path d="M92.8544 0H0V92.7364H92.8544V0Z" fill="#E50000"/>
<path d="M23.1014 14.2951V15.5506C23.1014 17.876 22.3564 19.7594 20.8664 21.2009C19.3764 22.6428 17.4439 23.3637 15.0925 23.3637C12.5777 23.3637 10.4825 22.5498 8.82942 20.922C7.17634 19.2711 6.36133 17.2715 6.36133 14.9229C6.36133 12.5511 7.17634 10.5514 8.80617 8.90035C10.4592 7.24942 12.4846 6.43555 14.9062 6.43555C17.9562 6.43555 20.6102 7.92372 22.0072 10.2261L19.2599 11.8073C18.4914 10.4817 16.815 9.55193 14.8828 9.55193C13.3229 9.55193 12.0423 10.0635 11.0409 11.0866C10.04 12.0865 9.55087 13.3654 9.55087 14.9236C9.55087 16.4583 10.0632 17.7371 11.0643 18.7374C12.089 19.7371 13.4393 20.2256 15.1157 20.2256C17.6067 20.2256 19.2831 19.0628 19.8649 17.133H14.9295V14.2951H23.1014Z" fill="white"/>
<path d="M27.9138 13.4115C28.4448 11.9233 29.7718 11.1792 31.276 11.1792V14.5276C30.4515 14.4005 29.6099 14.6008 28.9314 15.0857C28.2458 15.574 27.9139 16.3646 27.9139 17.4807V23.0381H25.0605V11.4119H27.9138V13.4115Z" fill="white"/>
<path d="M36.0939 18.457C36.4898 19.9219 37.5839 20.6428 39.3767 20.6428C40.5174 20.6428 41.4023 20.2475 41.9842 19.4802L44.4058 20.8753C43.265 22.5262 41.5655 23.3634 39.3301 23.3634C37.3975 23.3634 35.8613 22.782 34.6968 21.6194C33.5325 20.4569 32.9512 18.9917 32.9512 17.2246C32.9512 15.4806 33.5334 14.0157 34.6741 12.8531C35.8152 11.6672 37.3052 11.0859 39.0977 11.0859C40.7974 11.0859 42.2176 11.6672 43.3121 12.8531C44.4295 14.039 44.9881 15.4806 44.9881 17.2246C44.9819 17.6378 44.9431 18.0499 44.872 18.457H36.0939ZM41.9842 16.1317C41.6353 14.5504 40.4709 13.7831 39.0973 13.7831C37.4907 13.7831 36.3966 14.6435 36.0472 16.1317H41.9842Z" fill="white"/>
<path d="M55.8164 11.412H58.8197V23.0389H55.8164V21.6659C54.9082 22.8052 53.6511 23.3635 52.0206 23.3635C50.461 23.3635 49.1338 22.782 48.0165 21.5962C46.9223 20.4104 46.3633 18.9453 46.3633 17.2247C46.3633 15.504 46.9223 14.0622 48.0165 12.8765C49.1342 11.6905 50.4613 11.0859 52.0206 11.0859C53.6506 11.0859 54.9077 11.644 55.8164 12.7834V11.412ZM52.5796 20.5037C53.5111 20.5037 54.2794 20.2015 54.8849 19.597C55.5132 18.969 55.8159 18.1786 55.8159 17.2251C55.8159 16.2717 55.5132 15.4811 54.8849 14.8766C54.2794 14.2489 53.5111 13.9464 52.5796 13.9464C51.6481 13.9464 50.8798 14.2489 50.2747 14.8766C49.6693 15.4811 49.3666 16.2718 49.3666 17.2251C49.3666 18.1785 49.6693 18.969 50.2747 19.597C50.8804 20.2015 51.6486 20.5038 52.5796 20.5037Z" fill="white"/>
<path d="M68.6696 14.295H66.0383V19.1315C66.0383 20.3873 66.9466 20.4106 68.6696 20.3175V23.038C64.5483 23.503 63.035 22.3171 63.035 19.1315V14.295H61.0098V11.4118H63.035V9.06321L66.0383 8.15625V11.4118H68.6696V14.295Z" fill="white"/>
<path d="M14.5805 27.2051C16.1405 27.2051 17.4675 27.7398 18.5385 28.7862C19.6094 29.8327 20.145 31.1348 20.145 32.6696C20.145 34.2044 19.6097 35.5064 18.5385 36.5529C17.4673 37.5995 16.1405 38.1341 14.5805 38.1341H11.7169V43.4821H8.50391V27.2051H14.5805ZM14.5805 35.1341C15.9542 35.1341 16.9552 34.0646 16.9552 32.6694C16.9552 31.2508 15.9542 30.2046 14.5805 30.2046H11.7169V35.1341H14.5805Z" fill="white"/>
<path d="M22.3359 43.482V27.3555H25.3393V43.482H22.3359Z" fill="white"/>
<path d="M37.3996 31.8549H40.403V43.4818H37.3996V42.1097C36.4917 43.249 35.2345 43.8072 33.6048 43.8072C32.0448 43.8072 30.7177 43.2257 29.6004 42.04C28.5062 40.8541 27.9473 39.3892 27.9473 37.6685C27.9473 35.9477 28.5062 34.506 29.6004 33.3203C30.7182 32.1343 32.0453 31.5298 33.6048 31.5298C35.2345 31.5298 36.4917 32.0877 37.3996 33.2272V31.8549ZM34.1633 40.9466C35.0948 40.9466 35.8631 40.6444 36.4684 40.04C37.0968 39.4119 37.3996 38.6216 37.3996 37.6681C37.3996 36.7147 37.0968 35.9241 36.4684 35.3196C35.8629 34.6918 35.0947 34.3894 34.1633 34.3894C33.2318 34.3894 32.4636 34.6918 31.8585 35.3196C31.253 35.9241 30.9503 36.7147 30.9503 37.6681C30.9503 38.6216 31.253 39.4119 31.8585 40.04C32.4638 40.6448 33.232 40.9471 34.1633 40.9469V40.9466Z" fill="white"/>
<path d="M44.7345 42.0398C43.5704 40.854 42.9883 39.4122 42.9883 37.6683C42.9883 35.9246 43.5704 34.4828 44.7345 33.2969C45.9221 32.1109 47.3888 31.5303 49.1348 31.5303C51.3933 31.5303 53.3953 32.6927 54.35 34.5298L51.7663 36.0406C51.3008 35.0873 50.2996 34.4828 49.112 34.4828C47.3196 34.4828 45.9921 35.8081 45.9921 37.6683C45.9817 38.0877 46.0545 38.505 46.2064 38.8961C46.3583 39.2872 46.5862 39.6445 46.877 39.9471C47.4588 40.5283 48.2041 40.8308 49.112 40.8308C50.3229 40.8308 51.324 40.2493 51.7895 39.2961L54.3976 40.7843C53.373 42.6211 51.3938 43.8071 49.1352 43.8071C47.3888 43.8071 45.9221 43.2256 44.7345 42.0398Z" fill="white"/>
<path d="M59.1941 38.9007C59.5898 40.3656 60.6841 41.0864 62.4769 41.0864C63.6176 41.0864 64.5027 40.6912 65.0844 39.9239L67.506 41.3191C66.3652 42.97 64.6659 43.8071 62.4304 43.8071C60.4981 43.8071 58.9616 43.2256 57.7971 42.0632C56.633 40.9007 56.0508 39.4355 56.0508 37.6683C56.0508 35.9243 56.633 34.4594 57.7738 33.2969C58.9151 32.1109 60.4051 31.5303 62.1974 31.5303C63.8971 31.5303 65.3174 32.1115 66.4122 33.2974C67.5297 34.4833 68.0882 35.9249 68.0882 37.669C68.0816 38.0821 68.0432 38.4942 67.972 38.9013L59.1941 38.9007ZM65.0844 36.5754C64.7357 34.9942 63.5711 34.2269 62.1974 34.2269C60.5911 34.2269 59.4968 35.0873 59.1476 36.5754H65.0844Z" fill="white"/>
<path d="M18.3517 48.4619V51.3779H13.9514V63.9255H10.7384V51.3779H6.36133V48.4619H18.3517Z" fill="white"/>
<path d="M23.3574 64.2512C21.6349 64.2512 20.1677 63.6697 18.9804 62.4839C17.793 61.2982 17.2109 59.8333 17.2109 58.1124C17.2109 56.3921 17.793 54.9499 18.9804 53.7641C20.1677 52.5784 21.6349 51.9736 23.3574 51.9736C25.08 51.9736 26.5472 52.5784 27.7345 53.7641C28.9218 54.9504 29.5275 56.3916 29.5275 58.1124C29.5275 59.8333 28.9224 61.2982 27.7347 62.4839C26.547 63.6697 25.0804 64.2512 23.3574 64.2512ZM23.3574 61.3214C23.776 61.333 24.1926 61.2583 24.5811 61.1023C24.9697 60.9463 25.3219 60.7121 25.616 60.4143C26.2212 59.81 26.5238 59.0427 26.5239 58.1124C26.524 57.1826 26.2213 56.4153 25.616 55.8106C25.0085 55.2285 24.1993 54.9034 23.3576 54.9034C22.5159 54.9034 21.7067 55.2285 21.0992 55.8106C20.517 56.4148 20.2143 57.1826 20.2143 58.1124C20.2143 59.0427 20.517 59.81 21.0992 60.4143C21.3932 60.7121 21.7454 60.9463 22.1339 61.1023C22.5224 61.2583 22.9389 61.333 23.3574 61.3214Z" fill="white"/>
<path d="M11.3661 85.3205L6.80273 69.0435H10.1793L13.2988 81.1115L16.6981 69.0435H19.4454L22.868 81.1115L25.9878 69.0435H29.3637L24.8 85.3205H21.1445L18.0712 74.5775L15.0212 85.3205H11.3661Z" fill="white"/>
<path d="M35.2325 85.6462C33.5099 85.6462 32.0428 85.0647 30.8554 83.8789C29.668 82.6927 29.0859 81.2278 29.0859 79.5074C29.0859 77.7866 29.6681 76.3449 30.8554 75.1592C32.0427 73.9734 33.5099 73.3687 35.2325 73.3687C36.955 73.3687 38.4222 73.9729 39.6095 75.1592C40.7968 76.3449 41.402 77.7866 41.402 79.5074C41.402 81.2278 40.7969 82.6932 39.6091 83.8789C38.4214 85.0647 36.9554 85.6462 35.2325 85.6462ZM35.2325 82.7159C35.651 82.7275 36.0676 82.6533 36.4561 82.4973C36.8447 82.3413 37.197 82.1071 37.491 81.8093C38.0962 81.2051 38.3988 80.4373 38.3989 79.5074C38.399 78.5771 38.0964 77.8098 37.491 77.2051C36.8835 76.6231 36.0744 76.2985 35.2326 76.2985C34.3909 76.2985 33.5817 76.6231 32.9742 77.2051C32.392 77.8098 32.0893 78.5771 32.0893 79.5074C32.0893 80.4373 32.392 81.2045 32.9742 81.8093C33.2683 82.1071 33.6204 82.3413 34.0089 82.4973C34.3975 82.6533 34.8139 82.7275 35.2325 82.7159Z" fill="white"/>
<path d="M46.525 75.6936C47.0838 74.2055 48.4808 73.4614 50.064 73.4614V76.8097C49.2004 76.6815 48.32 76.8809 47.5958 77.368C46.8742 77.8561 46.525 78.6467 46.525 79.7627V85.3205H43.5215V73.6936H46.525V75.6936Z" fill="white"/>
<path d="M63.0097 85.3205H59.5172L55.2801 80.0419V85.3205H52.2773V69.0435H55.2806V78.8097L59.2852 73.6941H62.8708L58.1909 79.4371L63.0097 85.3205Z" fill="white"/>
<path d="M64.1056 83.2248C64.1005 82.7038 64.2512 82.1935 64.5377 81.7578C64.8238 81.3222 65.2332 80.982 65.7139 80.7791C66.1946 80.5766 66.7248 80.5211 67.2368 80.62C67.7488 80.7185 68.2203 80.9673 68.5908 81.3338C68.9613 81.7008 69.2145 82.1688 69.3176 82.6796C69.4213 83.1905 69.3707 83.72 69.1721 84.202C68.9734 84.6836 68.6363 85.0955 68.2026 85.3858C67.7695 85.6755 67.2595 85.8305 66.7379 85.8305C66.3927 85.8361 66.05 85.7725 65.7296 85.6437C65.4091 85.515 65.118 85.3237 64.8728 85.0809C64.6277 84.8381 64.4331 84.5488 64.3017 84.2303C64.1698 83.9113 64.1031 83.5696 64.1056 83.2248ZM68.8961 83.2132C68.8961 81.9224 67.9949 81.0224 66.7379 81.0224C65.4814 81.0224 64.5792 81.9345 64.5792 83.2248C64.5792 84.5276 65.5279 85.404 66.7379 85.404C67.959 85.404 68.8961 84.5039 68.8961 83.2132ZM65.8367 81.8866H66.7495C67.3545 81.8866 67.7457 82.1354 67.7457 82.6685V82.6801C67.7528 82.8406 67.7033 82.9981 67.6057 83.1258C67.5082 83.2536 67.3687 83.3429 67.2115 83.3787L67.8994 84.4797H67.3075L66.6793 83.4731H66.4063V84.4797H65.8377L65.8367 81.8866ZM66.7379 83.0829C67.0346 83.0829 67.1882 82.9522 67.1882 82.7038V82.6922C67.1882 82.4196 67.0225 82.3252 66.7379 82.3252H66.4058V83.0834L66.7379 83.0829Z" fill="white"/>
<path d="M88.1464 140.816H87.2113V142.859H86.3567V140.816H85.4297V139.994H88.1464V140.816ZM91.9417 142.859H91.0865V141.678L90.4396 142.828H90.0564L89.4095 141.678V142.859H88.5543V139.994H89.2816L90.2485 141.726L91.2149 139.994H91.9422L91.9417 142.859Z" fill="white"/>
</svg>
