<svg width="174" height="25" viewBox="0 0 174 25" fill="none" xmlns="http://www.w3.org/2000/svg">
<path d="M6.90924 0H0V6.90924H6.90924V0Z" fill="#2C2C31"/>
<path d="M6.90924 8.79492H0V15.7042H6.90924V8.79492Z" fill="#2C2C31"/>
<path d="M24.4971 0H17.5879V6.90924H24.4971V0Z" fill="#2C2C31"/>
<path d="M15.7022 0H8.79297V6.90924H15.7022V0Z" fill="#2C2C31"/>
<path d="M6.90924 16.959H0V24.4963H6.90924V16.959Z" fill="#2C2C31"/>
<path d="M15.7022 16.959H8.79297V24.4963H15.7022V16.959Z" fill="#2C2C31"/>
<path d="M24.4971 16.959H17.5879V24.4963H24.4971V16.959Z" fill="#2C2C31"/>
<path d="M15.8793 8.49022C14.953 8.50028 14.0675 8.87293 13.4128 9.52825C12.7581 10.1836 12.3863 11.0694 12.3771 11.9956C12.3691 12.0576 12.3691 12.1204 12.3771 12.1823C12.4337 13.0725 12.8242 13.9084 13.4706 14.5231C14.1169 15.1378 14.9713 15.4859 15.8632 15.4979C16.5577 15.5341 17.2421 15.3193 17.7913 14.8927C17.397 14.3915 17.0961 13.8234 16.9029 13.2156C16.7768 13.3606 16.6186 13.4743 16.4409 13.5475C16.2632 13.6207 16.0709 13.6514 15.8793 13.6373C15.4579 13.6313 15.0545 13.4654 14.7508 13.1732C14.4472 12.8809 14.266 12.4841 14.244 12.0632V11.9956C14.2507 11.564 14.4251 11.152 14.7303 10.8467C15.0356 10.5415 15.4476 10.3671 15.8793 10.3604C16.523 10.3604 16.6969 10.4988 16.9319 10.7982C17.2183 11.2596 17.4352 11.7607 17.5756 12.2853C17.7721 13.0163 18.0933 13.7078 18.5252 14.3294C18.8256 14.7009 19.2066 14.9992 19.6394 15.2017C20.0722 15.4041 20.5454 15.5054 21.0231 15.4979C21.9504 15.4928 22.8383 15.1222 23.4939 14.4665C24.1496 13.8108 24.5203 12.9229 24.5253 11.9956V11.9055C24.5284 11.8723 24.5284 11.8389 24.5253 11.8057C24.4686 10.9156 24.0781 10.0797 23.4318 9.465C22.7855 8.85033 21.9311 8.50221 21.0392 8.49022C20.3432 8.4541 19.6575 8.6701 19.1079 9.0986C19.4839 9.61151 19.7832 10.1765 19.9963 10.7757C20.1248 10.6337 20.2834 10.5221 20.4605 10.4492C20.6375 10.3763 20.8287 10.3437 21.0199 10.354C21.4412 10.3592 21.8447 10.525 22.1479 10.8175C22.4512 11.11 22.6314 11.5072 22.6519 11.928V11.9956C22.6453 12.4264 22.4712 12.8377 22.1666 13.1423C21.8619 13.4469 21.4507 13.621 21.0199 13.6277C20.3986 13.6277 20.228 13.4892 19.9963 13.1899C19.7106 12.7281 19.4937 12.2271 19.3525 11.7027C19.1547 10.9694 18.8277 10.2772 18.3868 9.6587C18.0841 9.2873 17.7013 8.98925 17.267 8.78688C16.8328 8.58452 16.3583 8.4831 15.8793 8.49022V8.49022Z" fill="#2C2C31"/>
<path d="M50.6614 4.95028V18.7795H47.2927V10.4859L44.1998 18.7795H41.4812L38.3687 10.4662V18.7795H35V4.95028H38.9794L42.8602 14.5244L46.7017 4.95028H50.6614Z" fill="#2C2C31"/>
<path d="M52.414 13.2833C52.414 12.1407 52.6438 11.1426 53.1035 10.2889C53.5763 9.43527 54.2264 8.77861 55.0538 8.31895C55.8943 7.85929 56.853 7.62946 57.93 7.62946C59.309 7.62946 60.4581 7.99062 61.3774 8.71295C62.3099 9.43527 62.9206 10.4531 63.2095 11.7664H59.6241C59.3221 10.9259 58.7377 10.5056 57.8709 10.5056C57.2536 10.5056 56.7611 10.7486 56.3934 11.2345C56.0256 11.7073 55.8418 12.3902 55.8418 13.2833C55.8418 14.1764 56.0256 14.8659 56.3934 15.3518C56.7611 15.8246 57.2536 16.061 57.8709 16.061C58.7377 16.061 59.3221 15.6407 59.6241 14.8002H63.2095C62.9206 16.0872 62.3099 17.0985 61.3774 17.834C60.445 18.5694 59.2958 18.9371 57.93 18.9371C56.853 18.9371 55.8943 18.7073 55.0538 18.2477C54.2264 17.788 53.5763 17.1313 53.1035 16.2777C52.6438 15.424 52.414 14.4259 52.414 13.2833Z" fill="#2C2C31"/>
<path d="M73.0293 18.7795L68.3801 12.6726V18.7795H65.0114V4.95028H68.3801V11.0178L72.9899 4.95028H76.9495L71.5912 11.727L77.1465 18.7795H73.0293Z" fill="#2C2C31"/>
<path d="M80.4416 6.64447C79.8506 6.64447 79.3647 6.47373 78.9838 6.13227C78.6161 5.77767 78.4322 5.34428 78.4322 4.83208C78.4322 4.30675 78.6161 3.87336 78.9838 3.5319C79.3647 3.1773 79.8506 3 80.4416 3C81.0195 3 81.4923 3.1773 81.86 3.5319C82.2409 3.87336 82.4313 4.30675 82.4313 4.83208C82.4313 5.34428 82.2409 5.77767 81.86 6.13227C81.4923 6.47373 81.0195 6.64447 80.4416 6.64447ZM82.1161 7.78705V18.7795H78.7474V7.78705H82.1161Z" fill="#2C2C31"/>
<path d="M91.2553 7.66886C92.5423 7.66886 93.5667 8.08912 94.3284 8.92964C95.1033 9.75704 95.4907 10.8996 95.4907 12.3574V18.7795H92.1418V12.8105C92.1418 12.075 91.9513 11.5038 91.5705 11.0966C91.1896 10.6895 90.6774 10.4859 90.0339 10.4859C89.3904 10.4859 88.8782 10.6895 88.4973 11.0966C88.1164 11.5038 87.926 12.075 87.926 12.8105V18.7795H84.5573V7.78705H87.926V9.24484C88.2675 8.75891 88.7271 8.37805 89.305 8.10225C89.8829 7.81332 90.5329 7.66886 91.2553 7.66886Z" fill="#2C2C31"/>
<path d="M101.2 4.20169V18.7795H97.8316V4.20169H101.2Z" fill="#2C2C31"/>
<path d="M114.004 13.106C114.004 13.4212 113.984 13.7495 113.945 14.091H106.321C106.373 14.7739 106.59 15.2992 106.971 15.667C107.365 16.0216 107.844 16.1989 108.409 16.1989C109.249 16.1989 109.834 15.8443 110.162 15.1351H113.748C113.564 15.8574 113.229 16.5075 112.743 17.0854C112.27 17.6632 111.672 18.1163 110.95 18.4447C110.228 18.773 109.42 18.9371 108.527 18.9371C107.45 18.9371 106.491 18.7073 105.651 18.2477C104.81 17.788 104.154 17.1313 103.681 16.2777C103.208 15.424 102.972 14.4259 102.972 13.2833C102.972 12.1407 103.202 11.1426 103.661 10.2889C104.134 9.43527 104.791 8.77861 105.631 8.31895C106.472 7.85929 107.437 7.62946 108.527 7.62946C109.591 7.62946 110.536 7.85272 111.364 8.29925C112.191 8.74578 112.835 9.38274 113.294 10.2101C113.767 11.0375 114.004 12.0028 114.004 13.106ZM110.556 12.2195C110.556 11.6417 110.359 11.182 109.965 10.8405C109.571 10.4991 109.079 10.3283 108.488 10.3283C107.923 10.3283 107.444 10.4925 107.05 10.8208C106.669 11.1492 106.432 11.6154 106.34 12.2195H110.556Z" fill="#2C2C31"/>
<path d="M127.01 7.78705L120.115 24H116.49L119.012 18.4053L114.54 7.78705H118.302L120.844 14.6623L123.365 7.78705H127.01Z" fill="#2C2C31"/>
<path d="M139.455 18.7795L136.579 13.5591H135.771V18.7795H132.402V4.95028H138.056C139.146 4.95028 140.072 5.14071 140.834 5.52158C141.609 5.90244 142.187 6.42777 142.568 7.09756C142.948 7.75422 143.139 8.48968 143.139 9.30394C143.139 10.2233 142.876 11.0441 142.351 11.7664C141.839 12.4887 141.077 13.0009 140.066 13.303L143.257 18.7795H139.455ZM135.771 11.1754H137.859C138.477 11.1754 138.936 11.0244 139.238 10.7223C139.554 10.4203 139.711 9.99343 139.711 9.44184C139.711 8.91651 139.554 8.50281 139.238 8.20075C138.936 7.89869 138.477 7.74765 137.859 7.74765H135.771V11.1754Z" fill="#2C2C31"/>
<path d="M146.948 6.64447C146.357 6.64447 145.871 6.47373 145.49 6.13227C145.122 5.77767 144.938 5.34428 144.938 4.83208C144.938 4.30675 145.122 3.87336 145.49 3.5319C145.871 3.1773 146.357 3 146.948 3C147.526 3 147.998 3.1773 148.366 3.5319C148.747 3.87336 148.937 4.30675 148.937 4.83208C148.937 5.34428 148.747 5.77767 148.366 6.13227C147.998 6.47373 147.526 6.64447 146.948 6.64447ZM148.622 7.78705V18.7795H145.254V7.78705H148.622Z" fill="#2C2C31"/>
<path d="M150.394 13.2833C150.394 12.1407 150.623 11.1426 151.083 10.2889C151.556 9.43527 152.206 8.77861 153.033 8.31895C153.874 7.85929 154.833 7.62946 155.91 7.62946C157.289 7.62946 158.438 7.99062 159.357 8.71295C160.29 9.43527 160.9 10.4531 161.189 11.7664H157.604C157.302 10.9259 156.717 10.5056 155.85 10.5056C155.233 10.5056 154.741 10.7486 154.373 11.2345C154.005 11.7073 153.821 12.3902 153.821 13.2833C153.821 14.1764 154.005 14.8659 154.373 15.3518C154.741 15.8246 155.233 16.061 155.85 16.061C156.717 16.061 157.302 15.6407 157.604 14.8002H161.189C160.9 16.0872 160.29 17.0985 159.357 17.834C158.425 18.5694 157.275 18.9371 155.91 18.9371C154.833 18.9371 153.874 18.7073 153.033 18.2477C152.206 17.788 151.556 17.1313 151.083 16.2777C150.623 15.424 150.394 14.4259 150.394 13.2833Z" fill="#2C2C31"/>
<path d="M173.353 13.106C173.353 13.4212 173.333 13.7495 173.294 14.091H165.67C165.723 14.7739 165.939 15.2992 166.32 15.667C166.714 16.0216 167.194 16.1989 167.758 16.1989C168.599 16.1989 169.183 15.8443 169.512 15.1351H173.097C172.913 15.8574 172.578 16.5075 172.092 17.0854C171.62 17.6632 171.022 18.1163 170.3 18.4447C169.577 18.773 168.77 18.9371 167.877 18.9371C166.8 18.9371 165.841 18.7073 165 18.2477C164.16 17.788 163.503 17.1313 163.03 16.2777C162.558 15.424 162.321 14.4259 162.321 13.2833C162.321 12.1407 162.551 11.1426 163.011 10.2889C163.484 9.43527 164.14 8.77861 164.981 8.31895C165.821 7.85929 166.787 7.62946 167.877 7.62946C168.94 7.62946 169.886 7.85272 170.713 8.29925C171.541 8.74578 172.184 9.38274 172.644 10.2101C173.117 11.0375 173.353 12.0028 173.353 13.106ZM169.906 12.2195C169.906 11.6417 169.709 11.182 169.315 10.8405C168.921 10.4991 168.428 10.3283 167.837 10.3283C167.272 10.3283 166.793 10.4925 166.399 10.8208C166.018 11.1492 165.782 11.6154 165.69 12.2195H169.906Z" fill="#2C2C31"/>
</svg>
